# xmcd CD database file
#
# Track frame offsets:
#	150
#	27394
#	61454
#	88451
#	118581
#	167052
#
# Disc length: 2530 seconds
#
# Revision: 0
# Processed by: cddbd v1.4PL0 Copyright (c) Steve Scherf et al.
# Submitted via: CDex 1.50beta10
#
DISCID=5009e006
DTITLE=Jack de Johnette - Album album
DYEAR=1900
DGENRE=Jazz
TTITLE0=Ahmad the terrible
TTITLE1=Monk' mood
TTITLE2=Festival
TTITLE3=New Orleans strut
TTITLE4=Third world anthem
TTITLE5=zoot suite
EXTD=
EXTT0=
EXTT1=
EXTT2=
EXTT3=
EXTT4=
EXTT5=
PLAYORDER=
